<svg width="33" height="34" viewBox="0 0 33 34" fill="none" xmlns="http://www.w3.org/2000/svg">
<g id="Iconly/Bold/Arrow - Down 2">
<g id="Arrow - Down 2">
<path id="Arrow - Down 2_2" d="M23.0374 18.5243C22.9618 18.6018 22.6765 18.933 22.4107 19.2055C20.8523 20.9191 16.7872 23.7239 14.6595 24.58C14.3363 24.7176 13.5194 25.0088 13.0829 25.0275C12.6647 25.0275 12.266 24.9313 11.8855 24.7363C11.4112 24.4638 11.0308 24.0351 10.8223 23.5289C10.6881 23.1776 10.4796 22.1265 10.4796 22.1078C10.2712 20.9578 10.1565 19.0893 10.1565 17.0244C10.1565 15.057 10.2712 13.2646 10.4418 12.0973C10.4614 12.0786 10.6699 10.7724 10.8979 10.3249C11.3161 9.50753 12.1331 8.99999 13.0073 8.99999L13.0829 8.99999C13.6523 9.02003 14.8497 9.52756 14.8497 9.54626C16.8627 10.4037 20.8341 13.071 22.4302 14.8433C22.4302 14.8433 22.8797 15.2988 23.0752 15.5833C23.38 15.992 23.5312 16.4982 23.5312 17.0044C23.5312 17.5694 23.3605 18.0956 23.0374 18.5243Z" fill="white"/>
</g>
</g>
</svg>
